<svg width="326" height="67" viewBox="0 0 326 67" fill="none" xmlns="http://www.w3.org/2000/svg">
<path d="M87.6641 1L24.668 65.8486L24.5205 66H3L67.0723 1H87.6641ZM5.39062 65H24.0986L85.2979 2H67.4893L5.39062 65Z" fill="white" stroke="white" stroke-width="2"/>
<path d="M126.978 1L63.9822 65.8486L63.8347 66H42.3142L106.386 1H126.978ZM44.7048 65H63.4128L124.612 2H106.803L44.7048 65Z" fill="white" stroke="white" stroke-width="2"/>
<path d="M166.293 1L103.297 65.8486L103.149 66H81.6287L145.701 1H166.293ZM84.0193 65H102.727L163.927 2H146.118L84.0193 65Z" fill="white" stroke="white" stroke-width="2"/>
<path d="M205.607 1L142.611 65.8486L142.463 66H120.943L185.015 1H205.607ZM123.333 65H142.042L203.241 2H185.432L123.333 65Z" fill="white" stroke="white" stroke-width="2"/>
<path d="M244.921 1L181.925 65.8486L181.778 66H160.257L224.329 1H244.921ZM162.648 65H181.356L242.555 2H224.746L162.648 65Z" fill="white" stroke="white" stroke-width="2"/>
<path d="M284.236 1L221.24 65.8486L221.092 66H199.572L263.644 1H284.236ZM201.962 65H220.67L281.869 2H264.061L201.962 65Z" fill="white" stroke="white" stroke-width="2"/>
<path d="M323.55 1L260.554 65.8486L260.406 66H238.886L302.958 1H323.55ZM241.276 65H259.984L321.184 2H303.375L241.276 65Z" fill="white" stroke="white" stroke-width="2"/>
</svg>
