<svg width="1380" height="908" viewBox="0 0 1380 908" fill="none" xmlns="http://www.w3.org/2000/svg">
<path d="M0.500122 826.131C0.500122 826.959 1.17169 827.631 2.00012 827.631C2.82855 827.631 3.50012 826.959 3.50012 826.131H2.00012H0.500122ZM2.00012 677.075L1.02394 675.936L0.500122 676.385V677.075H2.00012ZM19.8054 661.813L20.7816 662.952L21.3054 662.503V661.813H19.8054ZM19.8054 534.633H21.3054V534.011L20.8661 533.572L19.8054 534.633ZM2.00012 516.827H0.500122V517.449L0.939462 517.888L2.00012 516.827ZM2.00012 395.243L0.92463 394.197L0.500122 394.634V395.243H2.00012ZM19.8054 376.929L20.8809 377.974L21.3054 377.538V376.929H19.8054ZM19.8054 252.8H21.3054V252.257L20.9577 251.84L19.8054 252.8ZM2.00012 231.434H0.500122V231.977L0.84779 232.394L2.00012 231.434ZM2.00012 81.8695L0.925778 80.8227L0.500122 81.2595V81.8695H2.00012ZM79.326 2.50872V1.00872H78.6932L78.2516 1.46193L79.326 2.50872ZM200.402 2.50872L201.528 1.51778L201.08 1.00872H200.402V2.50872ZM211.594 15.2268L210.468 16.2177L210.916 16.7268H211.594V15.2268ZM301.129 15.2268V16.7268H301.718L302.15 16.326L301.129 15.2268ZM315.373 2V0.5H314.784L314.353 0.90081L315.373 2ZM1060.65 2L1061.65 0.878886L1061.22 0.5H1060.65V2ZM1074.39 14.2093L1073.39 15.3305L1073.8 15.6964L1074.35 15.709L1074.39 14.2093ZM1163.41 16.2442L1163.38 17.7438L1164.01 17.7581L1164.46 17.3233L1163.41 16.2442ZM2.00012 826.131H3.50012V677.075H2.00012H0.500122V826.131H2.00012ZM2.00012 677.075L2.97631 678.214L20.7816 662.952L19.8054 661.813L18.8292 660.674L1.02394 675.936L2.00012 677.075ZM19.8054 661.813H21.3054V534.633H19.8054H18.3054V661.813H19.8054ZM19.8054 534.633L20.8661 533.572L3.06078 515.767L2.00012 516.827L0.939462 517.888L18.7448 535.693L19.8054 534.633ZM2.00012 516.827H3.50012V395.243H2.00012H0.500122V516.827H2.00012ZM2.00012 395.243L3.07561 396.288L20.8809 377.974L19.8054 376.929L18.7299 375.883L0.92463 394.197L2.00012 395.243ZM19.8054 376.929H21.3054V252.8H19.8054H18.3054V376.929H19.8054ZM19.8054 252.8L20.9577 251.84L3.15245 230.474L2.00012 231.434L0.84779 232.394L18.6531 253.761L19.8054 252.8ZM2.00012 231.434H3.50012V81.8695H2.00012H0.500122V231.434H2.00012ZM2.00012 81.8695L3.07447 82.9163L80.4003 3.55552L79.326 2.50872L78.2516 1.46193L0.925778 80.8227L2.00012 81.8695ZM79.326 2.50872V4.00872H200.402V2.50872V1.00872H79.326V2.50872ZM200.402 2.50872L199.276 3.49966L210.468 16.2177L211.594 15.2268L212.72 14.2358L201.528 1.51778L200.402 2.50872ZM211.594 15.2268V16.7268H301.129V15.2268V13.7268H211.594V15.2268ZM301.129 15.2268L302.15 16.326L316.394 3.09919L315.373 2L314.353 0.90081L300.108 14.1276L301.129 15.2268ZM315.373 2V3.5H1060.65V2V0.5H315.373V2ZM1060.65 2L1059.66 3.12111L1073.39 15.3305L1074.39 14.2093L1075.38 13.0882L1061.65 0.878886L1060.65 2ZM1074.39 14.2093L1074.35 15.709L1163.38 17.7438L1163.41 16.2442L1163.45 14.7446L1074.42 12.7097L1074.39 14.2093ZM1163.41 16.2442L1164.46 17.3233L1179.21 3.0791L1178.17 2L1177.12 0.920898L1162.37 15.1651L1163.41 16.2442Z" fill="white"/>
<path d="M1296.7 2.50867L1297.75 1.43441L1297.31 1.00867H1296.7V2.50867ZM1376.57 80.3432H1378.07V79.7105L1377.62 79.269L1376.57 80.3432ZM1376.57 230.416L1377.63 231.477L1378.07 231.038V230.416H1376.57ZM1359.78 247.204L1358.72 246.144L1358.28 246.583V247.204H1359.78ZM1359.78 375.911H1358.28V376.545L1358.74 376.987L1359.78 375.911ZM1378.09 393.716H1379.59V393.083L1379.14 392.641L1378.09 393.716ZM1378.09 515.301L1379.14 516.377L1379.59 515.935V515.301H1378.09ZM1359.78 533.106L1358.74 532.031L1358.28 532.473V533.106H1359.78ZM1359.78 660.796H1358.28V661.458L1358.77 661.904L1359.78 660.796ZM1377.08 676.566H1378.58V675.904L1378.09 675.458L1377.08 676.566ZM1377.08 825.622L1378.15 826.665L1378.58 826.229V825.622H1377.08ZM1299.24 906V907.5H1299.88L1300.32 907.043L1299.24 906ZM1177.66 906L1176.55 907.016L1177 907.5H1177.66V906ZM1165.96 893.282L1167.06 892.266L1166.61 891.774L1165.94 891.782L1165.96 893.282ZM1075.91 894.299L1075.9 892.799L1075.29 892.806L1074.85 893.239L1075.91 894.299ZM1064.21 906V907.5H1064.83L1065.27 907.061L1064.21 906ZM314.864 906L313.702 906.948L314.152 907.5H314.864V906ZM303.673 892.265L304.835 891.317L304.385 890.765H303.673V892.265ZM218.716 892.265V890.765H218.216L217.816 891.065L218.716 892.265ZM200.402 906V907.5H200.902L201.302 907.2L200.402 906ZM81.8695 906L80.8054 907.057L81.2453 907.5H81.8695V906ZM3.06067 824.561C2.47488 823.975 1.52513 823.975 0.939345 824.561C0.353556 825.147 0.353551 826.097 0.939334 826.682L2 825.622L3.06067 824.561ZM1177.66 2.50867V4.00867H1296.7V2.50867V1.00867H1177.66V2.50867ZM1296.7 2.50867L1295.65 3.58292L1375.52 81.4175L1376.57 80.3432L1377.62 79.269L1297.75 1.43441L1296.7 2.50867ZM1376.57 80.3432H1375.07V230.416H1376.57H1378.07V80.3432H1376.57ZM1376.57 230.416L1375.51 229.356L1358.72 246.144L1359.78 247.204L1360.84 248.265L1377.63 231.477L1376.57 230.416ZM1359.78 247.204H1358.28V375.911H1359.78H1361.28V247.204H1359.78ZM1359.78 375.911L1358.74 376.987L1377.05 394.792L1378.09 393.716L1379.14 392.641L1360.83 374.836L1359.78 375.911ZM1378.09 393.716H1376.59V515.301H1378.09H1379.59V393.716H1378.09ZM1378.09 515.301L1377.05 514.226L1358.74 532.031L1359.78 533.106L1360.83 534.182L1379.14 516.377L1378.09 515.301ZM1359.78 533.106H1358.28V660.796H1359.78H1361.28V533.106H1359.78ZM1359.78 660.796L1358.77 661.904L1376.07 677.675L1377.08 676.566L1378.09 675.458L1360.79 659.687L1359.78 660.796ZM1377.08 676.566H1375.58V825.622H1377.08H1378.58V676.566H1377.08ZM1377.08 825.622L1376 824.578L1298.17 904.957L1299.24 906L1300.32 907.043L1378.15 826.665L1377.08 825.622ZM1299.24 906V904.5H1177.66V906V907.5H1299.24V906ZM1177.66 906L1178.76 904.984L1167.06 892.266L1165.96 893.282L1164.85 894.297L1176.55 907.016L1177.66 906ZM1165.96 893.282L1165.94 891.782L1075.9 892.799L1075.91 894.299L1075.93 895.799L1165.97 894.782L1165.96 893.282ZM1075.91 894.299L1074.85 893.239L1063.15 904.939L1064.21 906L1065.27 907.061L1076.97 895.36L1075.91 894.299ZM1064.21 906V904.5H992.483V906V907.5H1064.21V906ZM992.483 906V904.5H314.864V906V907.5H992.483V906ZM314.864 906L316.027 905.052L304.835 891.317L303.673 892.265L302.51 893.212L313.702 906.948L314.864 906ZM303.673 892.265V890.765H218.716V892.265V893.765H303.673V892.265ZM218.716 892.265L217.816 891.065L199.502 904.8L200.402 906L201.302 907.2L219.616 893.465L218.716 892.265ZM200.402 906V904.5H81.8695V906V907.5H200.402V906ZM81.8695 906C82.9335 904.943 82.9332 904.942 82.9326 904.942C82.932 904.941 82.9311 904.94 82.9299 904.939C82.9275 904.937 82.9239 904.933 82.9191 904.928C82.9094 904.919 82.8951 904.904 82.876 904.885C82.8378 904.846 82.7809 904.789 82.7058 904.714C82.5557 904.562 82.3328 904.338 82.0421 904.046C81.4607 903.461 80.608 902.602 79.5225 901.51C77.3515 899.325 74.2494 896.203 70.5254 892.455C63.0774 884.959 53.1414 874.96 43.1895 864.944C23.2879 844.916 3.31728 824.818 3.06067 824.561L2 825.622L0.939334 826.682C1.19145 826.935 21.1555 847.026 41.0615 867.059C51.0134 877.074 60.9493 887.074 68.3974 894.57C72.1214 898.318 75.2234 901.439 77.3944 903.624C78.4799 904.717 79.3327 905.575 79.914 906.16C80.2047 906.453 80.4276 906.677 80.5777 906.828C80.6528 906.904 80.7097 906.961 80.7479 906.999C80.767 907.019 80.7813 907.033 80.791 907.043C80.7958 907.048 80.7994 907.051 80.8018 907.054C80.803 907.055 80.8039 907.056 80.8045 907.056C80.8051 907.057 80.8054 907.057 81.8695 906Z" fill="white"/>
</svg>
